<?xml version="1.0" encoding="UTF-8"?>
<!-- Generator: Adobe Illustrator 23.0.1, SVG Export Plug-In . SVG Version: 6.00 Build 0)  -->
<svg xmlns="http://www.w3.org/2000/svg" xmlns:xlink="http://www.w3.org/1999/xlink" version="1.1" x="0px" y="0px" viewBox="0 0 658.31 214.24" style="enable-background:new 0 0 658.31 214.24;" xml:space="preserve">
<style type="text/css">
	.st0{fill:#424344;}
	.st1{fill:#DB492E;}
</style>
<g id="Ebene_2">
</g>
<g id="Ebene_1">
	<g>
		<g>
			<path class="st0" d="M147.83,202.59c0,3.77-2.45,5.17-6.15,5.17h-0.28c-3.7,0-6.15-1.36-6.15-5.17v-14.67     c0-3.63,2.45-5.17,6.15-5.17h0.28c3.7,0,6.15,1.54,6.15,5.17v3.49h-4.05v-2.87c0-1.75-0.91-2.24-2.24-2.24     c-1.33,0-2.24,0.49-2.24,2.24v13.42c0,1.75,0.91,2.24,2.24,2.24c1.33,0,2.24-0.49,2.24-2.24v-3.63h-2.38v-3.42h6.43V202.59z"></path>
			<path class="st0" d="M151.12,207.48v-24.46h10.73v3.56h-6.67v6.71h5.59v3.56h-5.59v7.06h6.78v3.56H151.12z"></path>
			<path class="st0" d="M172.22,191.76v-3.42c0-1.54-0.87-2.1-2.06-2.1c-1.19,0-2.06,0.56-2.06,2.1v1.68c0,1.26,0.42,1.82,1.57,2.48     l2.87,1.61c2.34,1.33,3.74,2.41,3.74,5.03v3.53c0,3.77-2.34,5.1-6.04,5.1h-0.07c-3.7,0-6.04-1.29-6.04-5.1v-4.26h3.98v3.7     c0,1.5,0.87,2.17,2.1,2.17c1.22,0,2.1-0.66,2.1-2.17v-1.92c0-1.26-0.38-1.89-1.61-2.55l-2.83-1.61     c-2.38-1.36-3.74-2.48-3.74-5.03v-3.21c0-3.63,2.66-5.03,6.01-5.03h0.07c3.35,0,6.01,1.4,6.01,5.03v3.98H172.22z"></path>
			<path class="st0" d="M189.9,186.58h-4.09v20.89h-4.05v-20.89h-4.09v-3.56h12.23V186.58z"></path>
			<path class="st0" d="M198.26,202.03h-4.47l-0.87,5.45H189l4.54-24.46h5.1l4.61,24.46h-4.12L198.26,202.03z M197.73,198.67     l-1.71-10.87l-1.71,10.87H197.73z"></path>
			<path class="st0" d="M215.59,207.48h-10.31v-24.46h4.05v20.82h6.26V207.48z"></path>
			<path class="st0" d="M226.49,186.58h-4.09v20.89h-4.05v-20.89h-4.09v-3.56h12.23V186.58z"></path>
			<path class="st0" d="M228.59,207.48v-24.46h10.73v3.56h-6.67v6.71h5.59v3.56h-5.59v7.06h6.78v3.56H228.59z"></path>
			<path class="st0" d="M242.29,207.48v-24.46h4.05l5.14,15.13v-15.13h3.7v24.46h-3.84l-5.35-15.9v15.9H242.29z"></path>
			<path class="st0" d="M287.85,188.19v14.12c0,3.7-2.45,5.17-6.15,5.17h-6.25v-24.46h6.25     C285.41,183.02,287.85,184.49,287.85,188.19z M281.56,186.58h-2.06v17.33h2.06c1.33,0,2.24-0.49,2.24-2.24v-12.86     C283.8,187.07,282.89,186.58,281.56,186.58z"></path>
			<path class="st0" d="M300.4,207.48l-3.11-9.75h-2.03v9.75h-4.05v-24.46h6.32c3.7,0,6.15,1.47,6.15,5.17v4.37     c0,2.34-0.98,3.81-2.65,4.54l3.49,10.38H300.4z M295.26,194.24h2.13c1.33,0,2.24-0.49,2.24-2.24v-3.18     c0-1.75-0.91-2.24-2.24-2.24h-2.13V194.24z"></path>
			<path class="st0" d="M319.09,202.59c0,3.77-2.38,5.17-6.08,5.17h-0.14c-3.7,0-6.08-1.36-6.08-5.17v-19.57h4.05v18.94     c0,1.75,0.77,2.24,2.1,2.24c1.33,0,2.1-0.49,2.1-2.24v-18.94h4.05V202.59z"></path>
			<path class="st0" d="M334.75,202.59c0,3.77-2.45,5.17-6.15,5.17h-0.07c-3.7,0-6.15-1.36-6.15-5.17v-14.67     c0-3.63,2.45-5.17,6.15-5.17h0.07c3.7,0,6.15,1.54,6.15,5.17v4.47h-4.05v-3.84c0-1.71-0.84-2.24-2.13-2.24     c-1.29,0-2.13,0.52-2.13,2.24v13.42c0,1.71,0.84,2.24,2.13,2.24c1.29,0,2.13-0.52,2.13-2.24v-4.44h4.05V202.59z"></path>
			<path class="st0" d="M347.19,207.48l-3.35-10.62l-1.82,3.56v7.06h-4.05v-24.46h4.05v11.01l4.61-11.01h4.26l-4.68,9.19l5.1,15.27     H347.19z"></path>
			<path class="st0" d="M352.99,207.48v-24.46h10.73v3.56h-6.67v6.71h5.59v3.56h-5.59v7.06h6.78v3.56H352.99z"></path>
			<path class="st0" d="M366.69,207.48v-24.46h4.05l5.14,15.13v-15.13h3.7v24.46h-3.84l-5.35-15.9v15.9H366.69z"></path>
			<path class="st0" d="M409.39,194.76c2.13,0.35,2.87,1.99,2.87,3.88v4.02c0,3.07-2.38,4.82-6.08,4.82h-6.32v-24.46h6.39     c3.7,0,5.87,1.75,5.87,4.82v3.08C412.12,192.66,411.35,194.52,409.39,194.76z M403.9,193.12h2.27c1.15,0,1.89-0.59,1.89-1.89     v-2.83c0-1.29-0.73-1.89-1.89-1.89h-2.27V193.12z M406.32,196.54h-2.41v7.44h2.41c1.15,0,1.89-0.59,1.89-1.89v-3.67     C408.2,197.14,407.47,196.54,406.32,196.54z"></path>
			<path class="st0" d="M415.26,207.48v-24.46h10.73v3.56h-6.67v6.71h5.59v3.56h-5.59v7.06h6.78v3.56H415.26z"></path>
			<path class="st0" d="M436.37,191.76v-3.42c0-1.54-0.87-2.1-2.06-2.1s-2.06,0.56-2.06,2.1v1.68c0,1.26,0.42,1.82,1.57,2.48     l2.87,1.61c2.34,1.33,3.74,2.41,3.74,5.03v3.53c0,3.77-2.34,5.1-6.04,5.1h-0.07c-3.7,0-6.04-1.29-6.04-5.1v-4.26h3.98v3.7     c0,1.5,0.87,2.17,2.1,2.17s2.1-0.66,2.1-2.17v-1.92c0-1.26-0.38-1.89-1.61-2.55l-2.83-1.61c-2.38-1.36-3.74-2.48-3.74-5.03v-3.21     c0-3.63,2.66-5.03,6.01-5.03h0.07c3.35,0,6.01,1.4,6.01,5.03v3.98H436.37z"></path>
			<path class="st0" d="M455.59,202.59c0,3.77-2.45,5.17-6.15,5.17h-0.07c-3.7,0-6.15-1.36-6.15-5.17v-14.67     c0-3.63,2.45-5.17,6.15-5.17h0.07c3.7,0,6.15,1.54,6.15,5.17v4.47h-4.05v-3.84c0-1.71-0.84-2.24-2.13-2.24s-2.13,0.52-2.13,2.24     v13.42c0,1.71,0.84,2.24,2.13,2.24s2.13-0.52,2.13-2.24v-4.44h4.05V202.59z"></path>
			<path class="st0" d="M462.86,183.02v10.2h4.65v-10.2h4.05v24.46h-4.05v-10.62h-4.65v10.62h-4.05v-24.46H462.86z"></path>
			<path class="st0" d="M484.24,207.48l-3.11-9.75h-2.03v9.75h-4.05v-24.46h6.32c3.7,0,6.15,1.47,6.15,5.17v4.37     c0,2.34-0.98,3.81-2.66,4.54l3.49,10.38H484.24z M479.11,194.24h2.13c1.33,0,2.24-0.49,2.24-2.24v-3.18     c0-1.75-0.91-2.24-2.24-2.24h-2.13V194.24z"></path>
			<path class="st0" d="M490.95,207.48v-24.46H495v24.46H490.95z"></path>
			<path class="st0" d="M498.64,183.02h10.59v3.56h-6.53v6.88h5.45v3.56h-5.45v10.45h-4.05V183.02z"></path>
			<path class="st0" d="M522.37,186.58h-4.09v20.89h-4.05v-20.89h-4.09v-3.56h12.23V186.58z"></path>
			<path class="st0" d="M524.46,207.48v-24.46h10.73v3.56h-6.67v6.71h5.59v3.56h-5.59v7.06h6.78v3.56H524.46z"></path>
			<path class="st0" d="M538.16,207.48v-24.46h4.05l5.14,15.13v-15.13h3.7v24.46h-3.84l-5.35-15.9v15.9H538.16z"></path>
			<path class="st0" d="M581.63,207.48h-10.31v-24.46h4.05v20.82h6.25V207.48z"></path>
			<path class="st0" d="M591.59,202.03h-4.47l-0.87,5.45h-3.91l4.54-24.46h5.1l4.61,24.46h-4.12L591.59,202.03z M591.07,198.67     l-1.71-10.87l-1.71,10.87H591.07z"></path>
			<path class="st0" d="M606.02,191.76v-3.42c0-1.54-0.87-2.1-2.06-2.1s-2.06,0.56-2.06,2.1v1.68c0,1.26,0.42,1.82,1.57,2.48     l2.86,1.61c2.34,1.33,3.74,2.41,3.74,5.03v3.53c0,3.77-2.34,5.1-6.04,5.1h-0.07c-3.7,0-6.04-1.29-6.04-5.1v-4.26h3.98v3.7     c0,1.5,0.87,2.17,2.1,2.17s2.1-0.66,2.1-2.17v-1.92c0-1.26-0.38-1.89-1.61-2.55l-2.83-1.61c-2.38-1.36-3.74-2.48-3.74-5.03v-3.21     c0-3.63,2.66-5.03,6.01-5.03H604c3.35,0,6.01,1.4,6.01,5.03v3.98H606.02z"></path>
			<path class="st0" d="M613.01,207.48v-24.46h10.73v3.56h-6.67v6.71h5.59v3.56h-5.59v7.06h6.78v3.56H613.01z"></path>
			<path class="st0" d="M635.9,207.48l-3.11-9.75h-2.03v9.75h-4.05v-24.46h6.32c3.7,0,6.15,1.47,6.15,5.17v4.37     c0,2.34-0.98,3.81-2.66,4.54l3.49,10.38H635.9z M630.76,194.24h2.13c1.33,0,2.24-0.49,2.24-2.24v-3.18     c0-1.75-0.91-2.24-2.24-2.24h-2.13V194.24z"></path>
			<path class="st0" d="M642.47,207.48v-24.46h4.05l5.14,15.13v-15.13h3.7v24.46h-3.84l-5.35-15.9v15.9H642.47z"></path>
		</g>
		<g>
			<polygon class="st0" points="19.66,109.1 0,137.32 82.17,108.86 0,80.88    "></polygon>
		</g>
		<g>
			<path class="st1" d="M311.55,7.31v17.02h7.75V7.31h6.76v40.81h-6.76V30.39h-7.75v17.72h-6.76V7.31H311.55z"></path>
			<path class="st1" d="M345.19,39.02h-7.46l-1.46,9.1h-6.53l7.58-40.81h8.51l7.7,40.81h-6.88L345.19,39.02z M344.32,33.43     l-2.86-18.13l-2.86,18.13H344.32z"></path>
			<path class="st1" d="M372.54,48.12l-5.19-16.27h-3.38v16.27h-6.76V7.31h10.55c6.18,0,10.26,2.45,10.26,8.63v7.29     c0,3.91-1.63,6.35-4.43,7.58l5.83,17.32H372.54z M363.97,26.02h3.56c2.21,0,3.73-0.82,3.73-3.73v-5.31     c0-2.92-1.52-3.73-3.73-3.73h-3.56V26.02z"></path>
			<path class="st1" d="M396.79,39.02h-7.46l-1.46,9.1h-6.53l7.58-40.81h8.51l7.7,40.81h-6.88L396.79,39.02z M395.92,33.43     l-2.86-18.13l-2.86,18.13H395.92z"></path>
			<path class="st1" d="M426,48.12h-17.2V7.31h6.76v34.75H426V48.12z"></path>
			<path class="st1" d="M450.61,15.94v23.55c0,6.18-4.08,8.63-10.26,8.63h-10.44V7.31h10.44C446.53,7.31,450.61,9.75,450.61,15.94z      M440.11,13.25h-3.44v28.92h3.44c2.22,0,3.73-0.82,3.73-3.73V16.99C443.84,14.07,442.33,13.25,440.11,13.25z"></path>
			<path class="st1" d="M478.83,21.88v-5.71c0-2.57-1.46-3.5-3.44-3.5s-3.44,0.93-3.44,3.5v2.8c0,2.1,0.7,3.03,2.62,4.14l4.78,2.68     c3.91,2.21,6.24,4.02,6.24,8.4v5.89c0,6.3-3.91,8.51-10.09,8.51h-0.12c-6.18,0-10.09-2.16-10.09-8.51v-7.11h6.65v6.18     c0,2.51,1.46,3.61,3.5,3.61c2.04,0,3.5-1.11,3.5-3.61v-3.21c0-2.1-0.64-3.15-2.68-4.26l-4.72-2.68c-3.96-2.27-6.24-4.14-6.24-8.4     v-5.36c0-6.06,4.43-8.4,10.03-8.4h0.12c5.6,0,10.03,2.33,10.03,8.4v6.65H478.83z"></path>
			<path class="st1" d="M511.19,39.96c0,6.3-4.08,8.63-10.26,8.63h-0.12c-6.18,0-10.26-2.27-10.26-8.63V15.47     c0-6.06,4.08-8.63,10.26-8.63h0.12c6.18,0,10.26,2.57,10.26,8.63v7.46h-6.76v-6.41c0-2.86-1.4-3.73-3.56-3.73     s-3.56,0.87-3.56,3.73v22.39c0,2.86,1.4,3.73,3.56,3.73s3.56-0.88,3.56-3.73v-7.4h6.76V39.96z"></path>
			<path class="st1" d="M523.61,7.31v17.02h7.75V7.31h6.76v40.81h-6.76V30.39h-7.75v17.72h-6.76V7.31H523.61z"></path>
			<path class="st1" d="M544.48,48.12V7.31h6.76v40.81H544.48z"></path>
			<path class="st1" d="M557.6,48.12V7.31h17.9v5.95h-11.14v11.19h9.33v5.95h-9.33v11.78h11.31v5.95H557.6z"></path>
			<path class="st1" d="M596.66,26.9c3.56,0.58,4.78,3.32,4.78,6.47v6.71c0,5.13-3.96,8.05-10.15,8.05h-10.55V7.31h10.67     c6.18,0,9.79,2.92,9.79,8.05v5.13C601.21,23.4,599.93,26.49,596.66,26.9z M587.51,24.16h3.79c1.92,0,3.15-0.99,3.15-3.15v-4.72     c0-2.16-1.22-3.15-3.15-3.15h-3.79V24.16z M591.53,29.87h-4.02v12.42h4.02c1.92,0,3.15-0.99,3.15-3.15v-6.12     C594.68,30.86,593.46,29.87,591.53,29.87z"></path>
			<path class="st1" d="M606.75,48.12V7.31h17.9v5.95h-11.14v11.19h9.33v5.95h-9.33v11.78h11.31v5.95H606.75z"></path>
			<path class="st1" d="M645.23,48.12l-5.19-16.27h-3.38v16.27h-6.76V7.31h10.55c6.18,0,10.26,2.45,10.26,8.63v7.29     c0,3.91-1.63,6.35-4.43,7.58l5.83,17.32H645.23z M636.66,26.02h3.56c2.21,0,3.73-0.82,3.73-3.73v-5.31     c0-2.92-1.52-3.73-3.73-3.73h-3.56V26.02z"></path>
		</g>
		<g>
			<g>
				<g>
					<path class="st0" d="M179.92,83.59v50.95c0,13.37-8.83,18.67-22.2,18.67h-22.57V64.93h22.57       C171.09,64.93,179.92,70.22,179.92,83.59z M157.22,77.79h-7.44v62.55h7.44c4.79,0,8.07-1.77,8.07-8.07V85.86       C165.29,79.55,162.01,77.79,157.22,77.79z"></path>
				</g>
				<g>
					<path class="st0" d="M225.19,153.2l-11.22-35.19h-7.31v35.19h-14.63V64.93h22.83c13.37,0,22.2,5.3,22.2,18.66v15.76       c0,8.45-3.53,13.75-9.58,16.39l12.61,37.46H225.19z M206.65,105.41h7.69c4.79,0,8.07-1.77,8.07-8.07V85.86       c0-6.31-3.28-8.07-8.07-8.07h-7.69V105.41z"></path>
				</g>
				<g>
					<path class="st0" d="M292.66,135.55c0,13.62-8.58,18.67-21.94,18.67h-0.5c-13.37,0-21.94-4.92-21.94-18.67V64.93h14.63v68.35       c0,6.31,2.77,8.07,7.57,8.07s7.57-1.77,7.57-8.07V64.93h14.63V135.55z"></path>
				</g>
				<g>
					<path class="st0" d="M349.16,135.55c0,13.62-8.83,18.67-22.2,18.67h-0.25c-13.37,0-22.2-4.92-22.2-18.67V82.58       c0-13.12,8.83-18.67,22.2-18.67h0.25c13.37,0,22.2,5.55,22.2,18.67v16.14h-14.63V84.85c0-6.18-3.03-8.07-7.69-8.07       c-4.67,0-7.69,1.89-7.69,8.07v48.43c0,6.18,3.03,8.07,7.69,8.07c4.67,0,7.69-1.89,7.69-8.07v-16.02h14.63V135.55z"></path>
				</g>
				<g>
					<path class="st0" d="M453.58,77.79h-14.76v75.42H424.2V77.79h-14.76V64.93h44.14V77.79z"></path>
				</g>
				<g>
					<path class="st0" d="M494.31,153.2l-11.22-35.19h-7.31v35.19h-14.63V64.93h22.83c13.37,0,22.2,5.3,22.2,18.66v15.76       c0,8.45-3.53,13.75-9.58,16.39l12.61,37.46H494.31z M475.78,105.41h7.69c4.79,0,8.07-1.77,8.07-8.07V85.86       c0-6.31-3.28-8.07-8.07-8.07h-7.69V105.41z"></path>
				</g>
				<g>
					<path class="st0" d="M518.02,153.2V64.93h38.72v12.86h-24.09V102h20.18v12.86h-20.18v25.48h24.47v12.86H518.02z"></path>
				</g>
				<g>
					<path class="st0" d="M567.46,64.93h38.21v12.86h-23.58v24.84h19.67v12.86h-19.67v37.71h-14.63V64.93z"></path>
				</g>
				<g>
					<path class="st0" d="M613.99,64.93h38.21v12.86h-23.58v24.84h19.67v12.86h-19.67v37.71h-14.63V64.93z"></path>
				</g>
				<g>
					<path class="st0" d="M652.56,152.81H641.5v-12.61h11.06V152.81z"></path>
				</g>
				<g>
					<path class="st0" d="M394.06,153.2l-12.11-38.34l-6.56,12.86v25.47h-14.63V64.93h14.63v39.73l16.65-39.73h15.39l-16.9,33.17       l18.41,55.11H394.06z"></path>
				</g>
			</g>
		</g>
		<circle class="st1" cx="265.5" cy="195.4" r="3.05"></circle>
		<circle class="st1" cx="389.96" cy="195.4" r="3.05"></circle>
		<circle class="st1" cx="561.64" cy="195.4" r="3.05"></circle>
		<g>
			<path class="st1" d="M80.81,47.95c-25.1,0-46.66,15.14-56.08,36.77l29.56,10.07c5.09-9.42,15.06-15.83,26.53-15.83     c16.64,0,30.13,13.49,30.13,30.13c0,16.64-13.49,30.13-30.13,30.13c-11.58,0-21.62-6.53-26.67-16.1l-29.48,10.21     c9.39,21.71,30.99,36.91,56.14,36.91c16.39,0,31.26-6.46,42.24-16.96V64.91C112.07,54.41,97.19,47.95,80.81,47.95z"></path>
		</g>
	</g>
</g>
</svg>
